<svg id="Group_3" data-name="Group 3" xmlns="http://www.w3.org/2000/svg" xmlns:xlink="http://www.w3.org/1999/xlink" width="385.43" height="130.832" viewBox="0 0 385.43 130.832">
  <defs>
    <clipPath id="clip-path">
      <rect id="Rectangle_4" data-name="Rectangle 4" width="385.43" height="130.832" fill="rgba(250,112,26,0.8)"/>
    </clipPath>
  </defs>
  <g id="Group_2" data-name="Group 2" clip-path="url(#clip-path)">
    <path id="Path_1" data-name="Path 1" d="M7.012,29.147C3.9,29.147.476,26.72.314,26.6a.812.812,0,0,1,0-1.283C.5,25.192,4.78,22.159,8.12,22.894a3.02,3.02,0,0,1,2.29,3.069,3.02,3.02,0,0,1-2.29,3.069,5.11,5.11,0,0,1-1.108.115m.974-.864h0ZM2.075,25.962c1.367.8,3.853,2,5.778,1.572a1.635,1.635,0,0,0,0-3.142c-1.933-.427-4.413.775-5.778,1.57" fill="rgba(250,112,26,0.8)"/>
    <path id="Path_2" data-name="Path 2" d="M419.8,29.148a5.176,5.176,0,0,1-1.109-.115,3.022,3.022,0,0,1-2.29-3.07,3.019,3.019,0,0,1,2.29-3.068c3.34-.736,7.625,2.3,7.806,2.427a.812.812,0,0,1,0,1.283c-.161.115-3.588,2.543-6.7,2.543m-.841-1.613c1.932.427,4.412-.776,5.778-1.571-1.366-.8-3.849-1.994-5.778-1.572a1.635,1.635,0,0,0,0,3.143" transform="translate(-41.377)" fill="rgba(250,112,26,0.8)"/>
    <path id="Path_3" data-name="Path 3" d="M376.7,26.726H10.719a.768.768,0,0,1,0-1.527H376.7a.768.768,0,0,1,0,1.527" transform="translate(-0.997)" fill="rgba(250,112,26,0.8)"/>
    <path id="Path_4" data-name="Path 4" d="M226.851,26.772a8.675,8.675,0,0,1-3.328-.667l-.276-.113a22.159,22.159,0,0,1-7.111-4.971c-5.965-6.056-11.384-3.84-11.438-3.818a.412.412,0,0,1-.081.028,4.411,4.411,0,0,0-2.84,5.266,2.976,2.976,0,0,0,3.566,2.438,2.257,2.257,0,0,0,1.393-1.251,2.451,2.451,0,0,0-.041-2.5,1.565,1.565,0,0,0-1.689-.648.685.685,0,0,1-.833-.556.773.773,0,0,1,.5-.925,2.865,2.865,0,0,1,3.1,1.185,4.1,4.1,0,0,1,.18,4.153,3.684,3.684,0,0,1-2.293,2.027,4.352,4.352,0,0,1-5.22-3.56,5.96,5.96,0,0,1,3.805-7.1c.6-.24,6.445-2.334,12.812,4.131a21.087,21.087,0,0,0,6.648,4.662l.294.122a7.549,7.549,0,0,0,7.755-1.235,8.756,8.756,0,0,0,3.155-7.314q-.018-.339-.057-.681a7.351,7.351,0,0,0-2.863-5.071c-2.307-1.758-4.758-2-6.727-.662A6.147,6.147,0,0,0,222.78,15.5a4.473,4.473,0,0,0,1.678,3,3.356,3.356,0,0,0,4.073.459,3.642,3.642,0,0,0,1.486-3.444,2.692,2.692,0,0,0-.907-1.756,2.145,2.145,0,0,0-1.728-.519.7.7,0,0,1-.771-.656.755.755,0,0,1,.593-.858,3.427,3.427,0,0,1,2.746.823,4.257,4.257,0,0,1,1.431,2.771,5.228,5.228,0,0,1-2.138,4.945,4.618,4.618,0,0,1-5.573-.515,6.036,6.036,0,0,1-2.252-4.057,7.74,7.74,0,0,1,3.133-7.286c2.415-1.64,5.49-1.377,8.223.706a8.9,8.9,0,0,1,3.449,6.14q.045.395.065.785a10.327,10.327,0,0,1-3.712,8.629,9.016,9.016,0,0,1-5.724,2.1" transform="translate(-19.902)" fill="rgba(250,112,26,0.8)"/>
    <path id="Path_5" data-name="Path 5" d="M197.13,26.772a9.016,9.016,0,0,1-5.724-2.1,10.327,10.327,0,0,1-3.712-8.629c.014-.26.035-.522.064-.784a8.9,8.9,0,0,1,3.45-6.141c2.733-2.082,5.806-2.346,8.223-.706a7.74,7.74,0,0,1,3.133,7.286,6.037,6.037,0,0,1-2.253,4.057,4.618,4.618,0,0,1-5.572.515,5.231,5.231,0,0,1-2.139-4.945,4.263,4.263,0,0,1,1.432-2.771,3.429,3.429,0,0,1,2.746-.823.755.755,0,0,1,.593.858.7.7,0,0,1-.772.656,2.147,2.147,0,0,0-1.728.519,2.7,2.7,0,0,0-.906,1.756,3.64,3.64,0,0,0,1.486,3.444,3.359,3.359,0,0,0,4.073-.459,4.473,4.473,0,0,0,1.678-3,6.147,6.147,0,0,0-2.487-5.787c-1.97-1.337-4.422-1.1-6.728.662a7.355,7.355,0,0,0-2.864,5.072q-.038.341-.056.68a8.754,8.754,0,0,0,3.155,7.314,7.548,7.548,0,0,0,7.755,1.235l.276-.114a21.074,21.074,0,0,0,6.67-4.674c6.365-6.461,12.206-4.369,12.811-4.127a5.961,5.961,0,0,1,3.8,7.1,4.354,4.354,0,0,1-5.22,3.56,3.682,3.682,0,0,1-2.293-2.027,4.1,4.1,0,0,1,.18-4.153,2.863,2.863,0,0,1,3.1-1.185.773.773,0,0,1,.5.925.685.685,0,0,1-.834.556,1.564,1.564,0,0,0-1.688.648,2.451,2.451,0,0,0-.041,2.5,2.257,2.257,0,0,0,1.394,1.251A2.975,2.975,0,0,0,222.2,22.5a4.41,4.41,0,0,0-2.84-5.266.433.433,0,0,1-.081-.028c-.22-.091-5.506-2.2-11.434,3.815A22.2,22.2,0,0,1,200.716,26l-.258.1a8.675,8.675,0,0,1-3.328.667" transform="translate(-18.65)" fill="rgba(250,112,26,0.8)"/>
    <path id="Path_6" data-name="Path 6" d="M213.716,13.995a.691.691,0,0,1-.639-.479c-.087-.243-2.147-6.019-1.655-10.45C211.657.949,212.743,0,213.716,0s2.059.948,2.294,3.065c.491,4.431-1.568,10.207-1.655,10.45a.691.691,0,0,1-.639.479m0-12.468c-.367,0-.8.594-.929,1.726h0a22.439,22.439,0,0,0,.929,7.612,22.5,22.5,0,0,0,.929-7.613c-.126-1.132-.563-1.726-.929-1.726M212.1,3.16h0Z" transform="translate(-21.001)" fill="rgba(250,112,26,0.8)"/>
    <path id="Path_7" data-name="Path 7" d="M218.534,13.308a.653.653,0,0,1-.485-.222.82.82,0,0,1-.187-.7c.061-.311.639-3.073,2.149-4.2a1.591,1.591,0,0,1,2.22.218,2.113,2.113,0,0,1,.214,2.49c-1.013,1.689-3.485,2.336-3.763,2.405a.628.628,0,0,1-.149.017m1.862-4.5.385.632a4.4,4.4,0,0,0-1.186,1.919A3.91,3.91,0,0,0,221.3,10.04a.445.445,0,0,0-.039-.56.327.327,0,0,0-.482-.038Z" transform="translate(-21.647)" fill="rgba(250,112,26,0.8)"/>
    <path id="Path_8" data-name="Path 8" d="M208.879,13.309a.629.629,0,0,1-.149-.018c-.278-.068-2.75-.715-3.763-2.405a2.112,2.112,0,0,1,.214-2.489,1.592,1.592,0,0,1,2.22-.219c1.509,1.133,2.088,3.895,2.148,4.206a.814.814,0,0,1-.186.7.651.651,0,0,1-.485.223M206.4,9.355a.344.344,0,0,0-.251.126.445.445,0,0,0-.039.56,3.911,3.911,0,0,0,1.7,1.322,4.4,4.4,0,0,0-1.184-1.92.387.387,0,0,0-.231-.088" transform="translate(-20.337)" fill="rgba(250,112,26,0.8)"/>
  </g>
</svg>
